G04 #@! TF.GenerationSoftware,KiCad,Pcbnew,5.0.0*
G04 #@! TF.CreationDate,2018-08-21T17:50:13+02:00*
G04 #@! TF.ProjectId,blink_badge,626C696E6B5F62616467652E6B696361,rev?*
G04 #@! TF.SameCoordinates,Original*
G04 #@! TF.FileFunction,Soldermask,Bot*
G04 #@! TF.FilePolarity,Negative*
%FSLAX46Y46*%
G04 Gerber Fmt 4.6, Leading zero omitted, Abs format (unit mm)*
G04 Created by KiCad (PCBNEW 5.0.0) date Tue Aug 21 17:50:13 2018*
%MOMM*%
%LPD*%
G01*
G04 APERTURE LIST*
%ADD10C,0.010000*%
%ADD11C,4.400000*%
%ADD12C,2.740000*%
%ADD13R,2.000000X2.000000*%
%ADD14C,2.000000*%
%ADD15R,1.650000X1.900000*%
%ADD16O,2.000000X2.000000*%
%ADD17R,2.100000X2.400000*%
%ADD18C,1.924000*%
%ADD19R,2.200000X2.200000*%
%ADD20C,2.200000*%
%ADD21C,1.400000*%
%ADD22R,1.400000X1.400000*%
%ADD23R,1.300000X1.200000*%
G04 APERTURE END LIST*
D10*
G04 #@! TO.C,G\002A\002A\002A*
G36*
X31848000Y-84512000D02*
X50211572Y-84512000D01*
X50681285Y-84985807D01*
X51150999Y-85459615D01*
X51151500Y-83666961D01*
X51152000Y-81874307D01*
X31848000Y-81874307D01*
X31848000Y-84512000D01*
X31848000Y-84512000D01*
G37*
X31848000Y-84512000D02*
X50211572Y-84512000D01*
X50681285Y-84985807D01*
X51150999Y-85459615D01*
X51151500Y-83666961D01*
X51152000Y-81874307D01*
X31848000Y-81874307D01*
X31848000Y-84512000D01*
G04 #@! TD*
D11*
G04 #@! TO.C,*
X36500000Y-70250000D03*
G04 #@! TD*
G04 #@! TO.C,*
X68000000Y-70250000D03*
G04 #@! TD*
D12*
G04 #@! TO.C,RV2*
X59500000Y-113500000D03*
X62000000Y-103500000D03*
X64500000Y-113500000D03*
G04 #@! TD*
D13*
G04 #@! TO.C,C1*
X51000000Y-113000000D03*
D14*
X53000000Y-113000000D03*
G04 #@! TD*
D15*
G04 #@! TO.C,C2*
X47750000Y-100500000D03*
X47750000Y-103000000D03*
G04 #@! TD*
D13*
G04 #@! TO.C,C3*
X53000000Y-105000000D03*
D14*
X51000000Y-105000000D03*
G04 #@! TD*
D15*
G04 #@! TO.C,C4*
X56750000Y-103000000D03*
X56750000Y-100500000D03*
G04 #@! TD*
D14*
G04 #@! TO.C,R1*
X30000000Y-105500000D03*
D16*
X30000000Y-95340000D03*
G04 #@! TD*
D17*
G04 #@! TO.C,R2*
X30000000Y-102500000D03*
X30000000Y-98500000D03*
G04 #@! TD*
D14*
G04 #@! TO.C,R3*
X34500000Y-99840000D03*
D16*
X34500000Y-110000000D03*
G04 #@! TD*
D17*
G04 #@! TO.C,R4*
X34500000Y-103000000D03*
X34500000Y-107000000D03*
G04 #@! TD*
D14*
G04 #@! TO.C,R5*
X70000000Y-99840000D03*
D16*
X70000000Y-110000000D03*
G04 #@! TD*
D17*
G04 #@! TO.C,R6*
X70000000Y-103000000D03*
X70000000Y-107000000D03*
G04 #@! TD*
D14*
G04 #@! TO.C,R7*
X74500000Y-105660000D03*
D16*
X74500000Y-95500000D03*
G04 #@! TD*
D17*
G04 #@! TO.C,R8*
X74500000Y-102500000D03*
X74500000Y-98500000D03*
G04 #@! TD*
D12*
G04 #@! TO.C,RV1*
X40000000Y-113500000D03*
X42500000Y-103500000D03*
X45000000Y-113500000D03*
G04 #@! TD*
D18*
G04 #@! TO.C,SW1*
X71550000Y-82250000D03*
X71550000Y-79750000D03*
X71550000Y-77250000D03*
G04 #@! TD*
D19*
G04 #@! TO.C,D1*
X37460000Y-96250000D03*
D20*
X40000000Y-96250000D03*
G04 #@! TD*
D21*
G04 #@! TO.C,Q1*
X38000000Y-77000000D03*
X39270000Y-78270000D03*
D22*
X36730000Y-78270000D03*
G04 #@! TD*
D21*
G04 #@! TO.C,Q3*
X66130000Y-76930000D03*
X67400000Y-78200000D03*
D22*
X64860000Y-78200000D03*
G04 #@! TD*
D19*
G04 #@! TO.C,D2*
X64460000Y-96250000D03*
D20*
X67000000Y-96250000D03*
G04 #@! TD*
D23*
G04 #@! TO.C,Q2*
X35500000Y-86600000D03*
X35500000Y-88500000D03*
X33500000Y-87550000D03*
G04 #@! TD*
G04 #@! TO.C,Q4*
X69000000Y-88500000D03*
X69000000Y-86600000D03*
X71000000Y-87550000D03*
G04 #@! TD*
M02*
