G04 #@! TF.GenerationSoftware,KiCad,Pcbnew,5.0.0*
G04 #@! TF.CreationDate,2018-08-21T17:50:13+02:00*
G04 #@! TF.ProjectId,blink_badge,626C696E6B5F62616467652E6B696361,rev?*
G04 #@! TF.SameCoordinates,Original*
G04 #@! TF.FileFunction,Legend,Top*
G04 #@! TF.FilePolarity,Positive*
%FSLAX46Y46*%
G04 Gerber Fmt 4.6, Leading zero omitted, Abs format (unit mm)*
G04 Created by KiCad (PCBNEW 5.0.0) date Tue Aug 21 17:50:13 2018*
%MOMM*%
%LPD*%
G01*
G04 APERTURE LIST*
%ADD10C,0.120000*%
%ADD11C,0.150000*%
%ADD12C,4.400000*%
%ADD13R,5.480000X5.480000*%
%ADD14C,15.400000*%
%ADD15C,0.900000*%
%ADD16C,2.740000*%
%ADD17R,2.000000X2.000000*%
%ADD18C,2.000000*%
%ADD19O,2.000000X2.000000*%
%ADD20C,1.924000*%
%ADD21R,2.200000X2.200000*%
%ADD22C,2.200000*%
%ADD23C,1.400000*%
%ADD24R,1.400000X1.400000*%
G04 APERTURE END LIST*
D10*
G04 #@! TO.C,RV2*
X63050000Y-108500000D02*
G75*
G03X63050000Y-108500000I-1050000J0D01*
G01*
X57039000Y-113560000D02*
X57039000Y-103440000D01*
X66960000Y-113560000D02*
X66960000Y-103440000D01*
X57039000Y-113560000D02*
X58135000Y-113560000D01*
X60865000Y-113560000D02*
X63135000Y-113560000D01*
X65865000Y-113560000D02*
X66960000Y-113560000D01*
X57039000Y-103440000D02*
X60635000Y-103440000D01*
X63365000Y-103440000D02*
X66960000Y-103440000D01*
G04 #@! TO.C,C1*
X54396863Y-112018600D02*
G75*
G03X49602564Y-112020000I-2396863J-981400D01*
G01*
X54396863Y-113981400D02*
G75*
G02X49602564Y-113980000I-2396863J981400D01*
G01*
X54396863Y-113981400D02*
G75*
G03X54397436Y-112020000I-2396863J981400D01*
G01*
X52000000Y-110450000D02*
X52000000Y-115550000D01*
X52040000Y-110450000D02*
X52040000Y-112020000D01*
X52040000Y-113980000D02*
X52040000Y-115550000D01*
X52080000Y-110451000D02*
X52080000Y-112020000D01*
X52080000Y-113980000D02*
X52080000Y-115549000D01*
X52120000Y-110452000D02*
X52120000Y-112020000D01*
X52120000Y-113980000D02*
X52120000Y-115548000D01*
X52160000Y-110454000D02*
X52160000Y-112020000D01*
X52160000Y-113980000D02*
X52160000Y-115546000D01*
X52200000Y-110457000D02*
X52200000Y-112020000D01*
X52200000Y-113980000D02*
X52200000Y-115543000D01*
X52240000Y-110461000D02*
X52240000Y-112020000D01*
X52240000Y-113980000D02*
X52240000Y-115539000D01*
X52280000Y-110465000D02*
X52280000Y-112020000D01*
X52280000Y-113980000D02*
X52280000Y-115535000D01*
X52320000Y-110469000D02*
X52320000Y-112020000D01*
X52320000Y-113980000D02*
X52320000Y-115531000D01*
X52360000Y-110475000D02*
X52360000Y-112020000D01*
X52360000Y-113980000D02*
X52360000Y-115525000D01*
X52400000Y-110481000D02*
X52400000Y-112020000D01*
X52400000Y-113980000D02*
X52400000Y-115519000D01*
X52440000Y-110487000D02*
X52440000Y-112020000D01*
X52440000Y-113980000D02*
X52440000Y-115513000D01*
X52480000Y-110494000D02*
X52480000Y-112020000D01*
X52480000Y-113980000D02*
X52480000Y-115506000D01*
X52520000Y-110502000D02*
X52520000Y-112020000D01*
X52520000Y-113980000D02*
X52520000Y-115498000D01*
X52560000Y-110511000D02*
X52560000Y-112020000D01*
X52560000Y-113980000D02*
X52560000Y-115489000D01*
X52600000Y-110520000D02*
X52600000Y-112020000D01*
X52600000Y-113980000D02*
X52600000Y-115480000D01*
X52640000Y-110530000D02*
X52640000Y-112020000D01*
X52640000Y-113980000D02*
X52640000Y-115470000D01*
X52680000Y-110540000D02*
X52680000Y-112020000D01*
X52680000Y-113980000D02*
X52680000Y-115460000D01*
X52721000Y-110552000D02*
X52721000Y-112020000D01*
X52721000Y-113980000D02*
X52721000Y-115448000D01*
X52761000Y-110564000D02*
X52761000Y-112020000D01*
X52761000Y-113980000D02*
X52761000Y-115436000D01*
X52801000Y-110576000D02*
X52801000Y-112020000D01*
X52801000Y-113980000D02*
X52801000Y-115424000D01*
X52841000Y-110590000D02*
X52841000Y-112020000D01*
X52841000Y-113980000D02*
X52841000Y-115410000D01*
X52881000Y-110604000D02*
X52881000Y-112020000D01*
X52881000Y-113980000D02*
X52881000Y-115396000D01*
X52921000Y-110618000D02*
X52921000Y-112020000D01*
X52921000Y-113980000D02*
X52921000Y-115382000D01*
X52961000Y-110634000D02*
X52961000Y-112020000D01*
X52961000Y-113980000D02*
X52961000Y-115366000D01*
X53001000Y-110650000D02*
X53001000Y-112020000D01*
X53001000Y-113980000D02*
X53001000Y-115350000D01*
X53041000Y-110667000D02*
X53041000Y-112020000D01*
X53041000Y-113980000D02*
X53041000Y-115333000D01*
X53081000Y-110685000D02*
X53081000Y-112020000D01*
X53081000Y-113980000D02*
X53081000Y-115315000D01*
X53121000Y-110704000D02*
X53121000Y-112020000D01*
X53121000Y-113980000D02*
X53121000Y-115296000D01*
X53161000Y-110724000D02*
X53161000Y-112020000D01*
X53161000Y-113980000D02*
X53161000Y-115276000D01*
X53201000Y-110744000D02*
X53201000Y-112020000D01*
X53201000Y-113980000D02*
X53201000Y-115256000D01*
X53241000Y-110766000D02*
X53241000Y-112020000D01*
X53241000Y-113980000D02*
X53241000Y-115234000D01*
X53281000Y-110788000D02*
X53281000Y-112020000D01*
X53281000Y-113980000D02*
X53281000Y-115212000D01*
X53321000Y-110811000D02*
X53321000Y-112020000D01*
X53321000Y-113980000D02*
X53321000Y-115189000D01*
X53361000Y-110835000D02*
X53361000Y-112020000D01*
X53361000Y-113980000D02*
X53361000Y-115165000D01*
X53401000Y-110860000D02*
X53401000Y-112020000D01*
X53401000Y-113980000D02*
X53401000Y-115140000D01*
X53441000Y-110887000D02*
X53441000Y-112020000D01*
X53441000Y-113980000D02*
X53441000Y-115113000D01*
X53481000Y-110914000D02*
X53481000Y-112020000D01*
X53481000Y-113980000D02*
X53481000Y-115086000D01*
X53521000Y-110942000D02*
X53521000Y-112020000D01*
X53521000Y-113980000D02*
X53521000Y-115058000D01*
X53561000Y-110972000D02*
X53561000Y-112020000D01*
X53561000Y-113980000D02*
X53561000Y-115028000D01*
X53601000Y-111003000D02*
X53601000Y-112020000D01*
X53601000Y-113980000D02*
X53601000Y-114997000D01*
X53641000Y-111035000D02*
X53641000Y-112020000D01*
X53641000Y-113980000D02*
X53641000Y-114965000D01*
X53681000Y-111068000D02*
X53681000Y-112020000D01*
X53681000Y-113980000D02*
X53681000Y-114932000D01*
X53721000Y-111103000D02*
X53721000Y-112020000D01*
X53721000Y-113980000D02*
X53721000Y-114897000D01*
X53761000Y-111139000D02*
X53761000Y-112020000D01*
X53761000Y-113980000D02*
X53761000Y-114861000D01*
X53801000Y-111177000D02*
X53801000Y-112020000D01*
X53801000Y-113980000D02*
X53801000Y-114823000D01*
X53841000Y-111217000D02*
X53841000Y-112020000D01*
X53841000Y-113980000D02*
X53841000Y-114783000D01*
X53881000Y-111258000D02*
X53881000Y-112020000D01*
X53881000Y-113980000D02*
X53881000Y-114742000D01*
X53921000Y-111301000D02*
X53921000Y-112020000D01*
X53921000Y-113980000D02*
X53921000Y-114699000D01*
X53961000Y-111346000D02*
X53961000Y-112020000D01*
X53961000Y-113980000D02*
X53961000Y-114654000D01*
X54001000Y-111394000D02*
X54001000Y-114606000D01*
X54041000Y-111444000D02*
X54041000Y-114556000D01*
X54081000Y-111496000D02*
X54081000Y-114504000D01*
X54121000Y-111552000D02*
X54121000Y-114448000D01*
X54161000Y-111610000D02*
X54161000Y-114390000D01*
X54201000Y-111673000D02*
X54201000Y-114327000D01*
X54241000Y-111739000D02*
X54241000Y-114261000D01*
X54281000Y-111811000D02*
X54281000Y-114189000D01*
X54321000Y-111888000D02*
X54321000Y-114112000D01*
X54361000Y-111972000D02*
X54361000Y-114028000D01*
X54401000Y-112066000D02*
X54401000Y-113934000D01*
X54441000Y-112171000D02*
X54441000Y-113829000D01*
X54481000Y-112293000D02*
X54481000Y-113707000D01*
X54521000Y-112441000D02*
X54521000Y-113559000D01*
X54561000Y-112646000D02*
X54561000Y-113354000D01*
X48800000Y-113000000D02*
X50000000Y-113000000D01*
X49400000Y-112350000D02*
X49400000Y-113650000D01*
G04 #@! TO.C,C3*
X49603137Y-105981400D02*
G75*
G03X54397436Y-105980000I2396863J981400D01*
G01*
X49603137Y-104018600D02*
G75*
G02X54397436Y-104020000I2396863J-981400D01*
G01*
X49603137Y-104018600D02*
G75*
G03X49602564Y-105980000I2396863J-981400D01*
G01*
X52000000Y-107550000D02*
X52000000Y-102450000D01*
X51960000Y-107550000D02*
X51960000Y-105980000D01*
X51960000Y-104020000D02*
X51960000Y-102450000D01*
X51920000Y-107549000D02*
X51920000Y-105980000D01*
X51920000Y-104020000D02*
X51920000Y-102451000D01*
X51880000Y-107548000D02*
X51880000Y-105980000D01*
X51880000Y-104020000D02*
X51880000Y-102452000D01*
X51840000Y-107546000D02*
X51840000Y-105980000D01*
X51840000Y-104020000D02*
X51840000Y-102454000D01*
X51800000Y-107543000D02*
X51800000Y-105980000D01*
X51800000Y-104020000D02*
X51800000Y-102457000D01*
X51760000Y-107539000D02*
X51760000Y-105980000D01*
X51760000Y-104020000D02*
X51760000Y-102461000D01*
X51720000Y-107535000D02*
X51720000Y-105980000D01*
X51720000Y-104020000D02*
X51720000Y-102465000D01*
X51680000Y-107531000D02*
X51680000Y-105980000D01*
X51680000Y-104020000D02*
X51680000Y-102469000D01*
X51640000Y-107525000D02*
X51640000Y-105980000D01*
X51640000Y-104020000D02*
X51640000Y-102475000D01*
X51600000Y-107519000D02*
X51600000Y-105980000D01*
X51600000Y-104020000D02*
X51600000Y-102481000D01*
X51560000Y-107513000D02*
X51560000Y-105980000D01*
X51560000Y-104020000D02*
X51560000Y-102487000D01*
X51520000Y-107506000D02*
X51520000Y-105980000D01*
X51520000Y-104020000D02*
X51520000Y-102494000D01*
X51480000Y-107498000D02*
X51480000Y-105980000D01*
X51480000Y-104020000D02*
X51480000Y-102502000D01*
X51440000Y-107489000D02*
X51440000Y-105980000D01*
X51440000Y-104020000D02*
X51440000Y-102511000D01*
X51400000Y-107480000D02*
X51400000Y-105980000D01*
X51400000Y-104020000D02*
X51400000Y-102520000D01*
X51360000Y-107470000D02*
X51360000Y-105980000D01*
X51360000Y-104020000D02*
X51360000Y-102530000D01*
X51320000Y-107460000D02*
X51320000Y-105980000D01*
X51320000Y-104020000D02*
X51320000Y-102540000D01*
X51279000Y-107448000D02*
X51279000Y-105980000D01*
X51279000Y-104020000D02*
X51279000Y-102552000D01*
X51239000Y-107436000D02*
X51239000Y-105980000D01*
X51239000Y-104020000D02*
X51239000Y-102564000D01*
X51199000Y-107424000D02*
X51199000Y-105980000D01*
X51199000Y-104020000D02*
X51199000Y-102576000D01*
X51159000Y-107410000D02*
X51159000Y-105980000D01*
X51159000Y-104020000D02*
X51159000Y-102590000D01*
X51119000Y-107396000D02*
X51119000Y-105980000D01*
X51119000Y-104020000D02*
X51119000Y-102604000D01*
X51079000Y-107382000D02*
X51079000Y-105980000D01*
X51079000Y-104020000D02*
X51079000Y-102618000D01*
X51039000Y-107366000D02*
X51039000Y-105980000D01*
X51039000Y-104020000D02*
X51039000Y-102634000D01*
X50999000Y-107350000D02*
X50999000Y-105980000D01*
X50999000Y-104020000D02*
X50999000Y-102650000D01*
X50959000Y-107333000D02*
X50959000Y-105980000D01*
X50959000Y-104020000D02*
X50959000Y-102667000D01*
X50919000Y-107315000D02*
X50919000Y-105980000D01*
X50919000Y-104020000D02*
X50919000Y-102685000D01*
X50879000Y-107296000D02*
X50879000Y-105980000D01*
X50879000Y-104020000D02*
X50879000Y-102704000D01*
X50839000Y-107276000D02*
X50839000Y-105980000D01*
X50839000Y-104020000D02*
X50839000Y-102724000D01*
X50799000Y-107256000D02*
X50799000Y-105980000D01*
X50799000Y-104020000D02*
X50799000Y-102744000D01*
X50759000Y-107234000D02*
X50759000Y-105980000D01*
X50759000Y-104020000D02*
X50759000Y-102766000D01*
X50719000Y-107212000D02*
X50719000Y-105980000D01*
X50719000Y-104020000D02*
X50719000Y-102788000D01*
X50679000Y-107189000D02*
X50679000Y-105980000D01*
X50679000Y-104020000D02*
X50679000Y-102811000D01*
X50639000Y-107165000D02*
X50639000Y-105980000D01*
X50639000Y-104020000D02*
X50639000Y-102835000D01*
X50599000Y-107140000D02*
X50599000Y-105980000D01*
X50599000Y-104020000D02*
X50599000Y-102860000D01*
X50559000Y-107113000D02*
X50559000Y-105980000D01*
X50559000Y-104020000D02*
X50559000Y-102887000D01*
X50519000Y-107086000D02*
X50519000Y-105980000D01*
X50519000Y-104020000D02*
X50519000Y-102914000D01*
X50479000Y-107058000D02*
X50479000Y-105980000D01*
X50479000Y-104020000D02*
X50479000Y-102942000D01*
X50439000Y-107028000D02*
X50439000Y-105980000D01*
X50439000Y-104020000D02*
X50439000Y-102972000D01*
X50399000Y-106997000D02*
X50399000Y-105980000D01*
X50399000Y-104020000D02*
X50399000Y-103003000D01*
X50359000Y-106965000D02*
X50359000Y-105980000D01*
X50359000Y-104020000D02*
X50359000Y-103035000D01*
X50319000Y-106932000D02*
X50319000Y-105980000D01*
X50319000Y-104020000D02*
X50319000Y-103068000D01*
X50279000Y-106897000D02*
X50279000Y-105980000D01*
X50279000Y-104020000D02*
X50279000Y-103103000D01*
X50239000Y-106861000D02*
X50239000Y-105980000D01*
X50239000Y-104020000D02*
X50239000Y-103139000D01*
X50199000Y-106823000D02*
X50199000Y-105980000D01*
X50199000Y-104020000D02*
X50199000Y-103177000D01*
X50159000Y-106783000D02*
X50159000Y-105980000D01*
X50159000Y-104020000D02*
X50159000Y-103217000D01*
X50119000Y-106742000D02*
X50119000Y-105980000D01*
X50119000Y-104020000D02*
X50119000Y-103258000D01*
X50079000Y-106699000D02*
X50079000Y-105980000D01*
X50079000Y-104020000D02*
X50079000Y-103301000D01*
X50039000Y-106654000D02*
X50039000Y-105980000D01*
X50039000Y-104020000D02*
X50039000Y-103346000D01*
X49999000Y-106606000D02*
X49999000Y-103394000D01*
X49959000Y-106556000D02*
X49959000Y-103444000D01*
X49919000Y-106504000D02*
X49919000Y-103496000D01*
X49879000Y-106448000D02*
X49879000Y-103552000D01*
X49839000Y-106390000D02*
X49839000Y-103610000D01*
X49799000Y-106327000D02*
X49799000Y-103673000D01*
X49759000Y-106261000D02*
X49759000Y-103739000D01*
X49719000Y-106189000D02*
X49719000Y-103811000D01*
X49679000Y-106112000D02*
X49679000Y-103888000D01*
X49639000Y-106028000D02*
X49639000Y-103972000D01*
X49599000Y-105934000D02*
X49599000Y-104066000D01*
X49559000Y-105829000D02*
X49559000Y-104171000D01*
X49519000Y-105707000D02*
X49519000Y-104293000D01*
X49479000Y-105559000D02*
X49479000Y-104441000D01*
X49439000Y-105354000D02*
X49439000Y-104646000D01*
X55200000Y-105000000D02*
X54000000Y-105000000D01*
X54600000Y-105650000D02*
X54600000Y-104350000D01*
G04 #@! TO.C,R1*
X28690000Y-103630000D02*
X31310000Y-103630000D01*
X31310000Y-103630000D02*
X31310000Y-97210000D01*
X31310000Y-97210000D02*
X28690000Y-97210000D01*
X28690000Y-97210000D02*
X28690000Y-103630000D01*
X30000000Y-104520000D02*
X30000000Y-103630000D01*
X30000000Y-96320000D02*
X30000000Y-97210000D01*
G04 #@! TO.C,R3*
X35810000Y-101710000D02*
X33190000Y-101710000D01*
X33190000Y-101710000D02*
X33190000Y-108130000D01*
X33190000Y-108130000D02*
X35810000Y-108130000D01*
X35810000Y-108130000D02*
X35810000Y-101710000D01*
X34500000Y-100820000D02*
X34500000Y-101710000D01*
X34500000Y-109020000D02*
X34500000Y-108130000D01*
G04 #@! TO.C,R5*
X71310000Y-101710000D02*
X68690000Y-101710000D01*
X68690000Y-101710000D02*
X68690000Y-108130000D01*
X68690000Y-108130000D02*
X71310000Y-108130000D01*
X71310000Y-108130000D02*
X71310000Y-101710000D01*
X70000000Y-100820000D02*
X70000000Y-101710000D01*
X70000000Y-109020000D02*
X70000000Y-108130000D01*
G04 #@! TO.C,R7*
X73190000Y-103790000D02*
X75810000Y-103790000D01*
X75810000Y-103790000D02*
X75810000Y-97370000D01*
X75810000Y-97370000D02*
X73190000Y-97370000D01*
X73190000Y-97370000D02*
X73190000Y-103790000D01*
X74500000Y-104680000D02*
X74500000Y-103790000D01*
X74500000Y-96480000D02*
X74500000Y-97370000D01*
G04 #@! TO.C,RV1*
X43550000Y-108500000D02*
G75*
G03X43550000Y-108500000I-1050000J0D01*
G01*
X37539000Y-113560000D02*
X37539000Y-103440000D01*
X47460000Y-113560000D02*
X47460000Y-103440000D01*
X37539000Y-113560000D02*
X38635000Y-113560000D01*
X41365000Y-113560000D02*
X43635000Y-113560000D01*
X46365000Y-113560000D02*
X47460000Y-113560000D01*
X37539000Y-103440000D02*
X41135000Y-103440000D01*
X43865000Y-103440000D02*
X47460000Y-103440000D01*
D11*
G04 #@! TO.C,SW1*
X74000000Y-81500000D02*
X76000000Y-81500000D01*
X76000000Y-81500000D02*
X76000000Y-80000000D01*
X76000000Y-80000000D02*
X74000000Y-80000000D01*
X74000000Y-84000000D02*
X74000000Y-75500000D01*
X74000000Y-75500000D02*
X70500000Y-75500000D01*
X70500000Y-75500000D02*
X70500000Y-84000000D01*
X70500000Y-84000000D02*
X74000000Y-84000000D01*
D10*
G04 #@! TO.C,Q1*
X36200000Y-80120000D02*
X39800000Y-80120000D01*
X36161522Y-80108478D02*
G75*
G02X38000000Y-75670000I1838478J1838478D01*
G01*
X39838478Y-80108478D02*
G75*
G03X38000000Y-75670000I-1838478J1838478D01*
G01*
G04 #@! TO.C,Q3*
X64330000Y-80050000D02*
X67930000Y-80050000D01*
X64291522Y-80038478D02*
G75*
G02X66130000Y-75600000I1838478J1838478D01*
G01*
X67968478Y-80038478D02*
G75*
G03X66130000Y-75600000I-1838478J1838478D01*
G01*
G04 #@! TO.C,*
D11*
G04 #@! TO.C,BT1*
X51639285Y-95718571D02*
X51782142Y-95766190D01*
X51829761Y-95813809D01*
X51877380Y-95909047D01*
X51877380Y-96051904D01*
X51829761Y-96147142D01*
X51782142Y-96194761D01*
X51686904Y-96242380D01*
X51305952Y-96242380D01*
X51305952Y-95242380D01*
X51639285Y-95242380D01*
X51734523Y-95290000D01*
X51782142Y-95337619D01*
X51829761Y-95432857D01*
X51829761Y-95528095D01*
X51782142Y-95623333D01*
X51734523Y-95670952D01*
X51639285Y-95718571D01*
X51305952Y-95718571D01*
X52163095Y-95242380D02*
X52734523Y-95242380D01*
X52448809Y-96242380D02*
X52448809Y-95242380D01*
X53591666Y-96242380D02*
X53020238Y-96242380D01*
X53305952Y-96242380D02*
X53305952Y-95242380D01*
X53210714Y-95385238D01*
X53115476Y-95480476D01*
X53020238Y-95528095D01*
G04 #@! TO.C,RV2*
X61404761Y-111702380D02*
X61071428Y-111226190D01*
X60833333Y-111702380D02*
X60833333Y-110702380D01*
X61214285Y-110702380D01*
X61309523Y-110750000D01*
X61357142Y-110797619D01*
X61404761Y-110892857D01*
X61404761Y-111035714D01*
X61357142Y-111130952D01*
X61309523Y-111178571D01*
X61214285Y-111226190D01*
X60833333Y-111226190D01*
X61690476Y-110702380D02*
X62023809Y-111702380D01*
X62357142Y-110702380D01*
X62642857Y-110797619D02*
X62690476Y-110750000D01*
X62785714Y-110702380D01*
X63023809Y-110702380D01*
X63119047Y-110750000D01*
X63166666Y-110797619D01*
X63214285Y-110892857D01*
X63214285Y-110988095D01*
X63166666Y-111130952D01*
X62595238Y-111702380D01*
X63214285Y-111702380D01*
G04 #@! TO.C,C1*
X49733333Y-110507142D02*
X49685714Y-110554761D01*
X49542857Y-110602380D01*
X49447619Y-110602380D01*
X49304761Y-110554761D01*
X49209523Y-110459523D01*
X49161904Y-110364285D01*
X49114285Y-110173809D01*
X49114285Y-110030952D01*
X49161904Y-109840476D01*
X49209523Y-109745238D01*
X49304761Y-109650000D01*
X49447619Y-109602380D01*
X49542857Y-109602380D01*
X49685714Y-109650000D01*
X49733333Y-109697619D01*
X50685714Y-110602380D02*
X50114285Y-110602380D01*
X50400000Y-110602380D02*
X50400000Y-109602380D01*
X50304761Y-109745238D01*
X50209523Y-109840476D01*
X50114285Y-109888095D01*
G04 #@! TO.C,C3*
X53833333Y-108257142D02*
X53785714Y-108304761D01*
X53642857Y-108352380D01*
X53547619Y-108352380D01*
X53404761Y-108304761D01*
X53309523Y-108209523D01*
X53261904Y-108114285D01*
X53214285Y-107923809D01*
X53214285Y-107780952D01*
X53261904Y-107590476D01*
X53309523Y-107495238D01*
X53404761Y-107400000D01*
X53547619Y-107352380D01*
X53642857Y-107352380D01*
X53785714Y-107400000D01*
X53833333Y-107447619D01*
X54166666Y-107352380D02*
X54785714Y-107352380D01*
X54452380Y-107733333D01*
X54595238Y-107733333D01*
X54690476Y-107780952D01*
X54738095Y-107828571D01*
X54785714Y-107923809D01*
X54785714Y-108161904D01*
X54738095Y-108257142D01*
X54690476Y-108304761D01*
X54595238Y-108352380D01*
X54309523Y-108352380D01*
X54214285Y-108304761D01*
X54166666Y-108257142D01*
G04 #@! TO.C,R1*
X32283333Y-98252380D02*
X31950000Y-97776190D01*
X31711904Y-98252380D02*
X31711904Y-97252380D01*
X32092857Y-97252380D01*
X32188095Y-97300000D01*
X32235714Y-97347619D01*
X32283333Y-97442857D01*
X32283333Y-97585714D01*
X32235714Y-97680952D01*
X32188095Y-97728571D01*
X32092857Y-97776190D01*
X31711904Y-97776190D01*
X33235714Y-98252380D02*
X32664285Y-98252380D01*
X32950000Y-98252380D02*
X32950000Y-97252380D01*
X32854761Y-97395238D01*
X32759523Y-97490476D01*
X32664285Y-97538095D01*
G04 #@! TO.C,R3*
X36833333Y-102692380D02*
X36500000Y-102216190D01*
X36261904Y-102692380D02*
X36261904Y-101692380D01*
X36642857Y-101692380D01*
X36738095Y-101740000D01*
X36785714Y-101787619D01*
X36833333Y-101882857D01*
X36833333Y-102025714D01*
X36785714Y-102120952D01*
X36738095Y-102168571D01*
X36642857Y-102216190D01*
X36261904Y-102216190D01*
X37166666Y-101692380D02*
X37785714Y-101692380D01*
X37452380Y-102073333D01*
X37595238Y-102073333D01*
X37690476Y-102120952D01*
X37738095Y-102168571D01*
X37785714Y-102263809D01*
X37785714Y-102501904D01*
X37738095Y-102597142D01*
X37690476Y-102644761D01*
X37595238Y-102692380D01*
X37309523Y-102692380D01*
X37214285Y-102644761D01*
X37166666Y-102597142D01*
G04 #@! TO.C,R5*
X67433333Y-102642380D02*
X67100000Y-102166190D01*
X66861904Y-102642380D02*
X66861904Y-101642380D01*
X67242857Y-101642380D01*
X67338095Y-101690000D01*
X67385714Y-101737619D01*
X67433333Y-101832857D01*
X67433333Y-101975714D01*
X67385714Y-102070952D01*
X67338095Y-102118571D01*
X67242857Y-102166190D01*
X66861904Y-102166190D01*
X68338095Y-101642380D02*
X67861904Y-101642380D01*
X67814285Y-102118571D01*
X67861904Y-102070952D01*
X67957142Y-102023333D01*
X68195238Y-102023333D01*
X68290476Y-102070952D01*
X68338095Y-102118571D01*
X68385714Y-102213809D01*
X68385714Y-102451904D01*
X68338095Y-102547142D01*
X68290476Y-102594761D01*
X68195238Y-102642380D01*
X67957142Y-102642380D01*
X67861904Y-102594761D01*
X67814285Y-102547142D01*
G04 #@! TO.C,R7*
X72033333Y-98412380D02*
X71700000Y-97936190D01*
X71461904Y-98412380D02*
X71461904Y-97412380D01*
X71842857Y-97412380D01*
X71938095Y-97460000D01*
X71985714Y-97507619D01*
X72033333Y-97602857D01*
X72033333Y-97745714D01*
X71985714Y-97840952D01*
X71938095Y-97888571D01*
X71842857Y-97936190D01*
X71461904Y-97936190D01*
X72366666Y-97412380D02*
X73033333Y-97412380D01*
X72604761Y-98412380D01*
G04 #@! TO.C,RV1*
X41904761Y-111802380D02*
X41571428Y-111326190D01*
X41333333Y-111802380D02*
X41333333Y-110802380D01*
X41714285Y-110802380D01*
X41809523Y-110850000D01*
X41857142Y-110897619D01*
X41904761Y-110992857D01*
X41904761Y-111135714D01*
X41857142Y-111230952D01*
X41809523Y-111278571D01*
X41714285Y-111326190D01*
X41333333Y-111326190D01*
X42190476Y-110802380D02*
X42523809Y-111802380D01*
X42857142Y-110802380D01*
X43714285Y-111802380D02*
X43142857Y-111802380D01*
X43428571Y-111802380D02*
X43428571Y-110802380D01*
X43333333Y-110945238D01*
X43238095Y-111040476D01*
X43142857Y-111088095D01*
G04 #@! TO.C,SW1*
X73404761Y-81333333D02*
X73452380Y-81190476D01*
X73452380Y-80952380D01*
X73404761Y-80857142D01*
X73357142Y-80809523D01*
X73261904Y-80761904D01*
X73166666Y-80761904D01*
X73071428Y-80809523D01*
X73023809Y-80857142D01*
X72976190Y-80952380D01*
X72928571Y-81142857D01*
X72880952Y-81238095D01*
X72833333Y-81285714D01*
X72738095Y-81333333D01*
X72642857Y-81333333D01*
X72547619Y-81285714D01*
X72500000Y-81238095D01*
X72452380Y-81142857D01*
X72452380Y-80904761D01*
X72500000Y-80761904D01*
X72452380Y-80428571D02*
X73452380Y-80190476D01*
X72738095Y-80000000D01*
X73452380Y-79809523D01*
X72452380Y-79571428D01*
X73452380Y-78666666D02*
X73452380Y-79238095D01*
X73452380Y-78952380D02*
X72452380Y-78952380D01*
X72595238Y-79047619D01*
X72690476Y-79142857D01*
X72738095Y-79238095D01*
G04 #@! TO.C,Q1*
X37904761Y-75257619D02*
X37809523Y-75210000D01*
X37714285Y-75114761D01*
X37571428Y-74971904D01*
X37476190Y-74924285D01*
X37380952Y-74924285D01*
X37428571Y-75162380D02*
X37333333Y-75114761D01*
X37238095Y-75019523D01*
X37190476Y-74829047D01*
X37190476Y-74495714D01*
X37238095Y-74305238D01*
X37333333Y-74210000D01*
X37428571Y-74162380D01*
X37619047Y-74162380D01*
X37714285Y-74210000D01*
X37809523Y-74305238D01*
X37857142Y-74495714D01*
X37857142Y-74829047D01*
X37809523Y-75019523D01*
X37714285Y-75114761D01*
X37619047Y-75162380D01*
X37428571Y-75162380D01*
X38809523Y-75162380D02*
X38238095Y-75162380D01*
X38523809Y-75162380D02*
X38523809Y-74162380D01*
X38428571Y-74305238D01*
X38333333Y-74400476D01*
X38238095Y-74448095D01*
G04 #@! TO.C,Q3*
X62104761Y-78747619D02*
X62009523Y-78700000D01*
X61914285Y-78604761D01*
X61771428Y-78461904D01*
X61676190Y-78414285D01*
X61580952Y-78414285D01*
X61628571Y-78652380D02*
X61533333Y-78604761D01*
X61438095Y-78509523D01*
X61390476Y-78319047D01*
X61390476Y-77985714D01*
X61438095Y-77795238D01*
X61533333Y-77700000D01*
X61628571Y-77652380D01*
X61819047Y-77652380D01*
X61914285Y-77700000D01*
X62009523Y-77795238D01*
X62057142Y-77985714D01*
X62057142Y-78319047D01*
X62009523Y-78509523D01*
X61914285Y-78604761D01*
X61819047Y-78652380D01*
X61628571Y-78652380D01*
X62390476Y-77652380D02*
X63009523Y-77652380D01*
X62676190Y-78033333D01*
X62819047Y-78033333D01*
X62914285Y-78080952D01*
X62961904Y-78128571D01*
X63009523Y-78223809D01*
X63009523Y-78461904D01*
X62961904Y-78557142D01*
X62914285Y-78604761D01*
X62819047Y-78652380D01*
X62533333Y-78652380D01*
X62438095Y-78604761D01*
X62390476Y-78557142D01*
G04 #@! TD*
%LPC*%
D12*
G04 #@! TO.C,*
X36500000Y-70250000D03*
G04 #@! TD*
G04 #@! TO.C,*
X68000000Y-70250000D03*
G04 #@! TD*
D13*
G04 #@! TO.C,BT1*
X39425000Y-86500000D03*
X65075000Y-86500000D03*
D14*
X52250000Y-86500000D03*
G04 #@! TD*
D15*
G04 #@! TO.C,REF\002A\002A*
X29700000Y-72800000D03*
G04 #@! TD*
G04 #@! TO.C,REF\002A\002A*
X29050000Y-74100000D03*
G04 #@! TD*
G04 #@! TO.C,REF\002A\002A*
X29750000Y-74100000D03*
G04 #@! TD*
G04 #@! TO.C,REF\002A\002A*
X30450000Y-74100000D03*
G04 #@! TD*
G04 #@! TO.C,REF\002A\002A*
X30450000Y-73400000D03*
G04 #@! TD*
G04 #@! TO.C,REF\002A\002A*
X74150000Y-73400000D03*
G04 #@! TD*
G04 #@! TO.C,REF\002A\002A*
X75650000Y-72650000D03*
G04 #@! TD*
G04 #@! TO.C,REF\002A\002A*
X74900000Y-74150000D03*
G04 #@! TD*
G04 #@! TO.C,REF\002A\002A*
X74900000Y-73400000D03*
G04 #@! TD*
G04 #@! TO.C,REF\002A\002A*
X74900000Y-72650000D03*
G04 #@! TD*
D16*
G04 #@! TO.C,RV2*
X59500000Y-113500000D03*
X62000000Y-103500000D03*
X64500000Y-113500000D03*
G04 #@! TD*
D17*
G04 #@! TO.C,C1*
X51000000Y-113000000D03*
D18*
X53000000Y-113000000D03*
G04 #@! TD*
D17*
G04 #@! TO.C,C3*
X53000000Y-105000000D03*
D18*
X51000000Y-105000000D03*
G04 #@! TD*
G04 #@! TO.C,R1*
X30000000Y-105500000D03*
D19*
X30000000Y-95340000D03*
G04 #@! TD*
D18*
G04 #@! TO.C,R3*
X34500000Y-99840000D03*
D19*
X34500000Y-110000000D03*
G04 #@! TD*
D18*
G04 #@! TO.C,R5*
X70000000Y-99840000D03*
D19*
X70000000Y-110000000D03*
G04 #@! TD*
D18*
G04 #@! TO.C,R7*
X74500000Y-105660000D03*
D19*
X74500000Y-95500000D03*
G04 #@! TD*
D16*
G04 #@! TO.C,RV1*
X40000000Y-113500000D03*
X42500000Y-103500000D03*
X45000000Y-113500000D03*
G04 #@! TD*
D20*
G04 #@! TO.C,SW1*
X71550000Y-82250000D03*
X71550000Y-79750000D03*
X71550000Y-77250000D03*
G04 #@! TD*
D21*
G04 #@! TO.C,D1*
X37460000Y-96250000D03*
D22*
X40000000Y-96250000D03*
G04 #@! TD*
D23*
G04 #@! TO.C,Q1*
X38000000Y-77000000D03*
X39270000Y-78270000D03*
D24*
X36730000Y-78270000D03*
G04 #@! TD*
D23*
G04 #@! TO.C,Q3*
X66130000Y-76930000D03*
X67400000Y-78200000D03*
D24*
X64860000Y-78200000D03*
G04 #@! TD*
D21*
G04 #@! TO.C,D2*
X64460000Y-96250000D03*
D22*
X67000000Y-96250000D03*
G04 #@! TD*
M02*
