M48
;DRILL file {KiCad 5.0.0} date Tue Aug 21 17:50:33 2018
;FORMAT={-:-/ absolute / inch / decimal}
FMAT,2
INCH,TZ
T1C0.0157
T2C0.0236
T3C0.0300
T4C0.0315
T5C0.0354
T6C0.0512
%
G90
G05
M72
T1
X2.7953Y-3.7598
T2
X1.4461Y-3.0815
X1.4961Y-3.0315
X1.5461Y-3.0815
X2.5535Y-3.0787
X2.6035Y-3.0287
X2.6535Y-3.0787
T3
X2.8169Y-3.0413
X2.8169Y-3.1398
X2.8169Y-3.2382
T4
X1.1811Y-3.7535
X1.1811Y-4.1535
X1.3583Y-3.9307
X1.3583Y-4.3307
X2.9331Y-3.7598
X2.9331Y-4.1598
X2.7559Y-3.9307
X2.7559Y-4.3307
X2.0079Y-4.4488
X2.0866Y-4.4488
X2.0079Y-4.1339
X2.0866Y-4.1339
T5
X1.4748Y-3.7894
X1.5748Y-3.7894
X2.5378Y-3.7894
X2.6378Y-3.7894
T6
X1.5748Y-4.4685
X1.6732Y-4.0748
X1.7717Y-4.4685
X2.3425Y-4.4685
X2.4409Y-4.0748
X2.5394Y-4.4685
T0
M30
